#N canvas 0 25 899 794 12;
#N canvas 583 26 720 793 clock_multiplication 0;
#X obj 36 61 receive ON;
#X floatatom 142 120 5 0 0 0 - - - 0;
#X obj 86 142 metro;
#X obj 86 172 bng 19 250 50 0 empty empty empty 0 -10 0 12 #fcfcfc #000000 #000000;
#X obj 275 60 receive ON;
#X floatatom 381 119 5 0 0 0 - - - 0;
#X obj 325 148 metro;
#X obj 325 176 bng 19 250 50 0 empty empty empty 0 -10 0 12 #fcfcfc #000000 #000000;
#X obj 139 155 send whole_time;
#X obj 142 92 * 4;
#X obj 381 91 * 1;
#X obj 86 205 send whole_note;
#X obj 142 61 receive fth_time;
#X obj 325 204 send fth_note;
#X obj 381 60 receive fth_time;
#X connect 0 0 2 0;
#X connect 1 0 2 1;
#X connect 1 0 8 0;
#X connect 2 0 3 0;
#X connect 3 0 11 0;
#X connect 4 0 6 0;
#X connect 5 0 6 1;
#X connect 6 0 7 0;
#X connect 7 0 13 0;
#X connect 9 0 1 0;
#X connect 10 0 5 0;
#X connect 12 0 9 0;
#X connect 14 0 10 0;
#X restore 183 104 pd clock_multiplication;
#X obj 48 42 tgl 19 0 empty empty empty 0 -10 0 12 #fcfcfc #000000 #000000 0 1;
#X obj 48 82 send ON;
#N canvas 1029 285 411 349 BPM 1;
#X msg 55 79 60000;
#X floatatom 154 108 5 0 0 0 - - - 0;
#X obj 96 138 bng 19 250 50 0 empty empty empty 0 -10 0 12 #fcfcfc #000000 #000000;
#X obj 96 171 /;
#X floatatom 96 200 5 0 0 0 - - - 0;
#X obj 55 37 receive start;
#X obj 96 228 send fth_time;
#X msg 154 78 90;
#X connect 0 0 3 0;
#X connect 1 0 2 0;
#X connect 1 0 3 1;
#X connect 2 0 3 0;
#X connect 3 0 4 0;
#X connect 4 0 6 0;
#X connect 5 0 0 0;
#X connect 5 0 7 0;
#X connect 7 0 1 0;
#X restore 184 68 pd BPM;
#N canvas 0 25 1440 793 clock_division 0;
#X obj 213 114 receive ON;
#X floatatom 319 173 5 0 0 0 - - - 0;
#X obj 263 195 metro;
#X obj 263 225 bng 19 250 50 0 empty empty empty 0 -10 0 12 #fcfcfc #000000 #000000;
#X obj 460 113 receive ON;
#X floatatom 566 172 5 0 0 0 - - - 0;
#X obj 510 201 metro;
#X obj 510 229 bng 19 250 50 0 empty empty empty 0 -10 0 12 #fcfcfc #000000 #000000;
#X obj 319 145 * 2;
#X obj 333 196 send half_time;
#X obj 263 258 send half_note;
#X obj 205 305 receive ON;
#X floatatom 311 364 5 0 0 0 - - - 0;
#X obj 255 393 metro;
#X obj 255 421 bng 19 250 50 0 empty empty empty 0 -10 0 12 #fcfcfc #000000 #000000;
#X obj 476 306 receive ON;
#X floatatom 582 365 5 0 0 0 - - - 0;
#X obj 526 394 metro;
#X obj 526 422 bng 19 250 50 0 empty empty empty 0 -10 0 12 #fcfcfc #000000 #000000;
#X obj 566 144 * 1;
#X obj 311 336 / 2;
#X obj 582 337 / 4;
#X obj 566 113 receive fth_time;
#X obj 582 306 receive fth_time;
#X obj 510 257 send fth_note;
#X obj 526 450 send sth_note;
#X obj 580 394 send sth_time;
#X obj 309 393 send eth_time;
#X obj 255 449 send eth_note;
#X obj 311 305 receive fth_time;
#X obj 319 114 receive fth_time;
#X connect 0 0 2 0;
#X connect 1 0 2 1;
#X connect 1 0 9 0;
#X connect 2 0 3 0;
#X connect 3 0 10 0;
#X connect 4 0 6 0;
#X connect 5 0 6 1;
#X connect 6 0 7 0;
#X connect 7 0 24 0;
#X connect 8 0 1 0;
#X connect 11 0 13 0;
#X connect 12 0 13 1;
#X connect 12 0 27 0;
#X connect 13 0 14 0;
#X connect 14 0 28 0;
#X connect 15 0 17 0;
#X connect 16 0 17 1;
#X connect 16 0 26 0;
#X connect 17 0 18 0;
#X connect 18 0 25 0;
#X connect 19 0 5 0;
#X connect 20 0 12 0;
#X connect 21 0 16 0;
#X connect 22 0 19 0;
#X connect 23 0 21 0;
#X connect 29 0 20 0;
#X connect 30 0 8 0;
#X restore 183 139 pd clock_division;
#N canvas 0 25 720 793 sequencer 0;
#X obj 155 53 receive ON;
#X obj 155 81 sel 0;
#X obj 155 106 bng 19 250 50 0 empty empty empty 0 -10 0 12 #fcfcfc #000000 #000000;
#X msg 155 132 -1;
#X obj 352 173 bng 19 250 50 0 empty empty empty 0 -10 0 12 #fcfcfc #000000 #000000;
#X obj 352 202 int 1;
#X obj 416 202 + 1;
#X floatatom 352 227 5 0 0 0 - - - 0;
#X obj 352 250 % 2;
#X obj 352 276 + 1;
#X obj 352 302 sel 1;
#X obj 352 326 bng 19 250 50 0 empty empty empty 0 -10 0 12 #fcfcfc #000000 #000000;
#X obj 352 350 tgl 19 0 empty empty empty 0 -10 0 12 #fcfcfc #000000 #000000 0 1;
#X obj 178 241 receive ON;
#X obj 178 269 sel 0;
#X msg 178 299 1;
#X obj 352 144 receive whole_note;
#X obj 352 374 send Chord;
#X obj 22 54 receive start;
#X connect 0 0 1 0;
#X connect 1 0 2 0;
#X connect 2 0 3 0;
#X connect 3 0 5 0;
#X connect 4 0 5 0;
#X connect 5 0 6 0;
#X connect 5 0 7 0;
#X connect 6 0 5 1;
#X connect 7 0 8 0;
#X connect 8 0 9 0;
#X connect 9 0 10 0;
#X connect 10 0 11 0;
#X connect 11 0 12 0;
#X connect 12 0 17 0;
#X connect 13 0 14 0;
#X connect 14 0 15 0;
#X connect 15 0 12 0;
#X connect 16 0 4 0;
#X connect 18 0 2 0;
#X connect 18 0 15 0;
#X restore 183 175 pd sequencer;
#N canvas 58 26 720 793 bass_envelope 0;
#X obj 71 50 r Chord;
#X obj 71 76 tgl 19 0 empty empty empty 0 -10 0 12 #fcfcfc #000000 #000000 0 1;
#X obj 71 104 sel 0;
#X obj 71 134 bng 19 250 50 0 empty empty empty 0 -10 0 12 #fcfcfc #000000 #000000;
#X obj 103 134 bng 19 250 50 0 empty empty empty 0 -10 0 12 #fcfcfc #000000 #000000;
#X obj 71 221 phasor~;
#X floatatom 71 193 5 0 0 0 - - - 0;
#X msg 134 166 87.31;
#X msg 71 165 130.81;
#X obj 71 250 lop~ 100;
#X obj 71 278 *~;
#X obj 217 58 receive ON;
#X obj 217 96 sel 1;
#X obj 217 129 bng 19 250 50 0 empty empty empty 0 -10 0 12 #fcfcfc #000000 #000000;
#X msg 217 164 1 500;
#X obj 334 58 receive whole_time;
#X obj 334 86 * 2;
#X floatatom 334 114 5 0 0 0 - - - 0;
#X obj 334 140 - 100;
#X obj 493 58 receive ON;
#X obj 493 89 sel 0;
#X obj 493 120 delay 5;
#X obj 302 169 delay;
#X msg 302 203 0 100;
#X obj 217 249 line~;
#X obj 72 343 outlet~;
#X connect 0 0 1 0;
#X connect 1 0 2 0;
#X connect 2 0 3 0;
#X connect 2 1 4 0;
#X connect 3 0 8 0;
#X connect 4 0 7 0;
#X connect 5 0 9 0;
#X connect 6 0 5 0;
#X connect 7 0 6 0;
#X connect 8 0 6 0;
#X connect 9 0 10 0;
#X connect 10 0 25 0;
#X connect 11 0 12 0;
#X connect 12 0 13 0;
#X connect 13 0 14 0;
#X connect 14 0 24 0;
#X connect 15 0 16 0;
#X connect 16 0 17 0;
#X connect 17 0 18 0;
#X connect 18 0 22 1;
#X connect 19 0 20 0;
#X connect 20 0 21 0;
#X connect 21 0 23 0;
#X connect 22 0 23 0;
#X connect 23 0 24 0;
#X connect 24 0 10 1;
#X restore 56 308 pd bass_envelope;
#N canvas 0 25 720 793 ambient_pad_melody 1;
#X obj 73 42 r whole_note;
#X obj 73 71 bng 19 250 50 0 empty empty empty 0 -10 0 12 #fcfcfc #000000 #000000;
#X floatatom 73 130 5 0 0 0 - - - 0;
#X obj 73 199 phasor~;
#X obj 73 226 lop~ 100;
#X obj 73 253 *~;
#X obj 73 279 *~ 0.5;
#X obj 154 155 * 1.001;
#X floatatom 154 178 5 0 0 0 - - - 0;
#X obj 154 200 phasor~;
#X obj 260 104 bng 19 250 50 0 empty empty empty 0 -10 0 12 #fcfcfc #000000 #000000;
#X msg 260 158 1 500;
#X msg 310 158 0 500;
#X obj 310 130 delay;
#X obj 342 50 receive whole_time;
#X floatatom 342 80 5 0 0 0 - - - 0;
#X obj 402 83 receive ON;
#X obj 402 108 sel 0;
#X obj 402 131 delay 5;
#N canvas 0 25 1440 793 Chords_Scales 0;
#X obj 121 22 inlet;
#X obj 124 52 bng 19 250 50 0 empty empty empty 0 -10 0 12 #fcfcfc #000000 #000000;
#X obj 279 96 random 8;
#X floatatom 279 119 5 0 0 0 - - - 0;
#X msg 181 193 60;
#X floatatom 280 245 5 0 0 0 - - - 0;
#X obj 280 267 mtof;
#X floatatom 280 295 5 0 0 0 - - - 0;
#X obj 280 317 outlet;
#X obj 278 142 sel 0 1 2 3 4 5 6 7;
#X msg 223 193 62;
#X msg 265 193 64;
#X msg 306 193 65;
#X msg 347 193 67;
#X msg 387 193 69;
#X msg 427 193 71;
#X msg 469 193 72;
#X connect 0 0 1 0;
#X connect 1 0 2 0;
#X connect 2 0 3 0;
#X connect 3 0 9 0;
#X connect 4 0 5 0;
#X connect 5 0 6 0;
#X connect 6 0 7 0;
#X connect 7 0 8 0;
#X connect 9 0 4 0;
#X connect 9 1 10 0;
#X connect 9 2 11 0;
#X connect 9 3 12 0;
#X connect 9 4 13 0;
#X connect 9 5 14 0;
#X connect 9 6 15 0;
#X connect 9 7 16 0;
#X connect 10 0 5 0;
#X connect 11 0 5 0;
#X connect 12 0 5 0;
#X connect 13 0 5 0;
#X connect 14 0 5 0;
#X connect 15 0 5 0;
#X connect 16 0 5 0;
#X restore 73 101 pd Chords_Scales;
#X obj 260 192 line~;
#X obj 74 339 outlet~;
#X obj 342 102 - 500;
#X connect 0 0 1 0;
#X connect 0 0 10 0;
#X connect 1 0 19 0;
#X connect 2 0 3 0;
#X connect 2 0 7 0;
#X connect 3 0 4 0;
#X connect 4 0 5 0;
#X connect 5 0 6 0;
#X connect 6 0 21 0;
#X connect 7 0 8 0;
#X connect 8 0 9 0;
#X connect 9 0 4 0;
#X connect 10 0 11 0;
#X connect 10 0 13 0;
#X connect 11 0 20 0;
#X connect 12 0 20 0;
#X connect 13 0 12 0;
#X connect 14 0 15 0;
#X connect 15 0 22 0;
#X connect 16 0 17 0;
#X connect 17 0 18 0;
#X connect 18 0 12 0;
#X connect 19 0 2 0;
#X connect 20 0 5 1;
#X connect 22 0 13 1;
#X restore 190 308 pd ambient_pad_melody;
#X obj 143 551 *~ 0.5;
#X obj 56 598 dac~;
#X obj 49 130 bng 19 250 50 0 empty empty empty 0 -10 0 12 #fcfcfc #000000 #000000;
#X obj 49 172 send start;
#X obj 273 490 hsl 162 19 0 1 0 0 empty empty empty -2 -10 0 12 #fcfcfc #000000 #000000 0 1;
#X obj 271 448 hsl 162 19 0 1 0 0 empty empty empty -2 -10 0 12 #fcfcfc #000000 #000000 0 1;
#X obj 266 398 receive bass_volume;
#X obj 56 551 *~ 0.3;
#N canvas 76 26 1364 793 reverb 0;
#X obj 119 86 inlet~;
#X obj 119 484 *~;
#X obj 180 481 hsl 128 15 0 10 0 0 empty empty gain -2 -8 0 10 #c6ffc7 #000000 #000000 0 1;
#X obj 119 590 *~;
#X obj 187 599 hsl 128 15 0 1 0 0 empty empty output -2 -8 0 10 #c6ffc7 #000000 #000000 0 1;
#X obj 119 636 dac~;
#X obj 176 549 delwrite~ audio-buffer 5000;
#X obj 1088 262 delread~ audio-buffer 0;
#X floatatom 1088 222 5 0 0 0 - - - 0;
#X obj 1091 183 hsl 128 15 0 5000 0 0 empty empty delay_time -2 -8 0 10 #c6ffc7 #000000 #000000 0 1;
#X obj 1088 363 *~;
#X obj 1194 302 hsl 128 15 0 1 0 0 empty empty delay_volume -2 -8 0 10 #c6ffc7 #000000 #000000 0 1;
#X obj 1088 400 dac~;
#X obj 1158 367 *~;
#X obj 1194 343 hsl 128 15 0 1 0 0 empty empty feedback_amnt -2 -8 0 10 #c6ffc7 #000000 #000000 0 1;
#X obj 447 252 *~;
#X obj 526 233 hsl 128 15 0 10 0 0 empty empty gain -2 -8 0 10 #c6ffc7 #000000 #000000 0 1;
#X obj 530 385 *~;
#X obj 635 367 hsl 128 15 0 1 0 0 empty empty output -2 -8 0 10 #c6ffc7 #000000 #000000 0 1;
#X obj 485 449 dac~;
#X obj 447 378 *~;
#X floatatom 465 324 5 0 0 0 - - - 0;
#X obj 513 346 *~;
#X msg 345 150 8;
#X msg 464 150 2500;
#X msg 409 149 0.3;
#X obj 307 98 bng 19 250 50 0 empty empty empty 0 -10 0 12 #fcfcfc #000000 #000000;
#X obj 363 97 bng 19 250 50 0 empty empty empty 0 -10 0 12 #fcfcfc #000000 #000000;
#X obj 411 97 bng 19 250 50 0 empty empty empty 0 -10 0 12 #fcfcfc #000000 #000000;
#X obj 348 48 receive start;
#N canvas 0 25 1440 793 rev2 0;
#X obj 161 497 +~;
#X obj 520 105 inlet;
#X obj 184 407 *~;
#X obj 486 412 *~;
#X obj 285 412 *~;
#X obj 387 412 *~;
#X obj 443 546 -~;
#X obj 364 545 -~;
#X obj 239 537 +~;
#X obj 161 534 +~;
#X obj 162 444 +~;
#X obj 262 440 +~;
#X obj 464 501 -~;
#X obj 387 499 +~;
#X obj 239 500 -~;
#X obj 452 105 inlet;
#X obj 609 429 line~;
#X obj 509 374 line~;
#X obj 16 121 delread~ \$0-del1 58.6435;
#X obj 94 143 delread~ \$0-del2 69.4325;
#X obj 176 165 delread~ \$0-del3 74.5234;
#X obj 258 189 delread~ \$0-del4 86.1244;
#X obj 530 500 *~;
#X obj 599 501 *~;
#X obj 161 641 delwrite~ \$0-del1 58.6435;
#X obj 240 617 delwrite~ \$0-del2 69.4325;
#X obj 365 595 delwrite~ \$0-del3 74.5234;
#X obj 444 573 delwrite~ \$0-del4 86.1244;
#X obj 609 357 dbtorms;
#X obj 609 403 pack 0 30;
#X obj 520 211 pack 0 50;
#X obj 9 390 inlet~;
#X obj 530 525 outlet~;
#X obj 599 525 outlet~;
#X obj 520 187 / 200;
#X obj 520 162 clip 0 100;
#X obj 52 236 lop~;
#X obj 452 137 f \$1;
#X obj 520 138 f \$2;
#X obj 625 143 f \$3;
#X obj 696 143 f \$4;
#X obj 667 500 *~;
#X obj 735 501 *~;
#X obj 667 525 outlet~;
#X obj 735 525 outlet~;
#X obj 625 167 moses 1;
#X msg 631 193 3000;
#X obj 705 193 clip 0 100;
#N canvas 345 88 355 597 early-reflect 0;
#X obj 119 477 delread~ \$0-ref6 13.645;
#X obj 119 453 delwrite~ \$0-ref6 13.645;
#X obj 106 400 delread~ \$0-ref5 16.364;
#X obj 106 376 delwrite~ \$0-ref5 16.364;
#X obj 102 324 delread~ \$0-ref4 19.392;
#X obj 102 300 delwrite~ \$0-ref4 19.392;
#X obj 106 247 delread~ \$0-ref3 25.796;
#X obj 106 223 delwrite~ \$0-ref3 25.796;
#X obj 107 169 delread~ \$0-ref2 43.5337;
#X obj 107 145 delwrite~ \$0-ref2 43.5337;
#X obj 110 90 delread~ \$0-ref1 75.2546;
#X obj 84 119 -~;
#X obj 49 119 +~;
#X obj 50 195 +~;
#X obj 85 196 -~;
#X obj 84 275 -~;
#X obj 49 274 +~;
#X obj 82 349 -~;
#X obj 48 350 +~;
#X obj 83 428 -~;
#X obj 49 428 +~;
#X obj 65 7 inlet~;
#X obj 110 66 delwrite~ \$0-ref1 75.2546;
#X obj 49 508 outlet~;
#X obj 119 507 outlet~;
#X connect 0 0 24 0;
#X connect 2 0 20 1;
#X connect 2 0 19 1;
#X connect 4 0 18 1;
#X connect 4 0 17 1;
#X connect 6 0 16 1;
#X connect 6 0 15 1;
#X connect 8 0 13 1;
#X connect 8 0 14 1;
#X connect 10 0 12 1;
#X connect 10 0 11 1;
#X connect 11 0 9 0;
#X connect 12 0 14 0;
#X connect 12 0 13 0;
#X connect 13 0 16 0;
#X connect 13 0 15 0;
#X connect 14 0 7 0;
#X connect 15 0 5 0;
#X connect 16 0 18 0;
#X connect 16 0 17 0;
#X connect 17 0 3 0;
#X connect 18 0 20 0;
#X connect 18 0 19 0;
#X connect 19 0 1 0;
#X connect 20 0 23 0;
#X connect 21 0 12 0;
#X connect 21 0 11 0;
#X connect 21 0 22 0;
#X restore 9 416 pd early-reflect;
#X obj 618 216 f;
#X obj 618 105 inlet;
#X obj 696 109 inlet;
#X obj 705 216 f;
#X obj 705 239 * 0.01;
#X obj 705 263 pack 0 50;
#X obj 705 287 line~;
#X obj 29 269 -~;
#X obj 28 300 *~;
#X obj 16 331 +~;
#X obj 132 240 lop~;
#X obj 106 274 -~;
#X obj 105 309 *~;
#X obj 95 333 +~;
#X obj 214 245 lop~;
#X obj 188 273 -~;
#X obj 187 314 *~;
#X obj 176 339 +~;
#X obj 308 249 lop~;
#X obj 281 274 -~;
#X obj 281 318 *~;
#X obj 258 342 +~;
#X obj 609 379 * 0.125;
#X text 403 10 control inlets:;
#X text 9 9 rev2 - simple \, cheap reverberator with;
#X text 400 29 1: output level \, dB \, 0-100;
#X text 8 30 one signal inlet and four signal outlets.;
#X text 399 79 4: high frequency damping \, 0-100;
#X text 400 62 3: crossover frequency in Hz. (3000 default);
#X text 400 45 2: liveness \, 0-100 \, usually between 85 and 100;
#X obj 826 89 receive start;
#X connect 0 0 9 0;
#X connect 0 0 7 0;
#X connect 1 0 38 0;
#X connect 2 0 10 1;
#X connect 3 0 12 1;
#X connect 3 0 13 1;
#X connect 3 0 42 0;
#X connect 4 0 11 1;
#X connect 5 0 13 0;
#X connect 5 0 12 0;
#X connect 5 0 41 0;
#X connect 6 0 27 0;
#X connect 7 0 26 0;
#X connect 8 0 25 0;
#X connect 9 0 24 0;
#X connect 10 0 14 0;
#X connect 10 0 0 0;
#X connect 10 0 22 0;
#X connect 11 0 0 1;
#X connect 11 0 14 1;
#X connect 11 0 23 0;
#X connect 12 0 8 1;
#X connect 12 0 6 1;
#X connect 13 0 9 1;
#X connect 13 0 7 1;
#X connect 14 0 8 0;
#X connect 14 0 6 0;
#X connect 15 0 37 0;
#X connect 16 0 22 1;
#X connect 16 0 23 1;
#X connect 16 0 41 1;
#X connect 16 0 42 1;
#X connect 17 0 4 1;
#X connect 17 0 2 1;
#X connect 17 0 5 1;
#X connect 17 0 3 1;
#X connect 18 0 36 0;
#X connect 18 0 56 1;
#X connect 18 0 58 0;
#X connect 19 0 59 0;
#X connect 19 0 60 1;
#X connect 19 0 62 0;
#X connect 20 0 66 0;
#X connect 20 0 63 0;
#X connect 20 0 64 1;
#X connect 21 0 70 0;
#X connect 21 0 68 1;
#X connect 21 0 67 0;
#X connect 22 0 32 0;
#X connect 23 0 33 0;
#X connect 28 0 71 0;
#X connect 29 0 16 0;
#X connect 30 0 17 0;
#X connect 31 0 48 0;
#X connect 34 0 30 0;
#X connect 35 0 34 0;
#X connect 36 0 56 0;
#X connect 37 0 28 0;
#X connect 38 0 35 0;
#X connect 39 0 45 0;
#X connect 40 0 47 0;
#X connect 41 0 43 0;
#X connect 42 0 44 0;
#X connect 45 0 46 0;
#X connect 45 1 49 0;
#X connect 46 0 49 0;
#X connect 47 0 52 0;
#X connect 48 0 10 0;
#X connect 48 1 11 0;
#X connect 49 0 36 1;
#X connect 49 0 59 1;
#X connect 49 0 63 1;
#X connect 49 0 67 1;
#X connect 50 0 49 0;
#X connect 51 0 40 0;
#X connect 52 0 53 0;
#X connect 53 0 54 0;
#X connect 54 0 55 0;
#X connect 55 0 57 1;
#X connect 55 0 61 1;
#X connect 55 0 65 1;
#X connect 55 0 69 1;
#X connect 56 0 57 0;
#X connect 57 0 58 1;
#X connect 58 0 2 0;
#X connect 59 0 60 0;
#X connect 60 0 61 0;
#X connect 61 0 62 1;
#X connect 62 0 4 0;
#X connect 63 0 64 0;
#X connect 64 0 65 0;
#X connect 65 0 66 1;
#X connect 66 0 5 0;
#X connect 67 0 68 0;
#X connect 68 0 69 0;
#X connect 69 0 70 1;
#X connect 70 0 3 0;
#X connect 71 0 29 0;
#X connect 79 0 40 0;
#X connect 79 0 39 0;
#X connect 79 0 38 0;
#X connect 79 0 37 0;
#X restore 584 324 pd rev2;
#X f 15;
#X msg 618 292 100;
#X msg 660 292 90;
#X msg 702 292 3000;
#X msg 751 292 20;
#X obj 649 258 receive start;
#X connect 0 0 1 0;
#X connect 0 0 15 0;
#X connect 1 0 3 0;
#X connect 1 0 6 0;
#X connect 2 0 1 1;
#X connect 3 0 5 0;
#X connect 3 0 5 1;
#X connect 4 0 3 1;
#X connect 7 0 10 0;
#X connect 7 0 13 0;
#X connect 8 0 7 0;
#X connect 9 0 8 0;
#X connect 10 0 12 0;
#X connect 10 0 12 1;
#X connect 11 0 10 1;
#X connect 13 0 6 0;
#X connect 14 0 13 1;
#X connect 15 0 20 0;
#X connect 15 0 30 0;
#X connect 16 0 15 1;
#X connect 17 0 19 1;
#X connect 18 0 17 1;
#X connect 18 0 22 1;
#X connect 20 0 19 0;
#X connect 20 0 19 1;
#X connect 21 0 20 1;
#X connect 22 0 19 0;
#X connect 23 0 2 0;
#X connect 23 0 16 0;
#X connect 24 0 9 0;
#X connect 25 0 4 0;
#X connect 25 0 18 0;
#X connect 25 0 11 0;
#X connect 25 0 14 0;
#X connect 26 0 23 0;
#X connect 27 0 25 0;
#X connect 28 0 24 0;
#X connect 29 0 26 0;
#X connect 29 0 27 0;
#X connect 29 0 28 0;
#X connect 30 0 22 0;
#X connect 30 1 17 0;
#X connect 31 0 30 1;
#X connect 32 0 30 2;
#X connect 33 0 30 3;
#X connect 34 0 30 4;
#X connect 35 0 31 0;
#X connect 35 0 32 0;
#X connect 35 0 33 0;
#X connect 35 0 34 0;
#X restore 148 603 pd reverb;
#X obj 355 8 netreceive -u 1000;
#X msg 513 558 connect localhost 1000;
#X msg 525 582 disconnect;
#X obj 437 688 netsend -u;
#X obj 281 26 print;
#X msg 632 626 send bass_volume \$1;
#X floatatom 669 599 5 0 0 0 - - - 0;
#X floatatom 801 595 5 0 0 0 - - - 0;
#X msg 515 624 send start;
#X msg 798 623 send ambient_volume \$1;
#X text 438 657 (This is only for testing);
#X obj 428 397 receive ambient_volume;
#X obj 309 46 route start bass_volume ambient_volume init;
#X floatatom 274 539 5 0 0 0 - - - 0;
#X floatatom 359 535 5 0 0 0 - - - 0;
#X connect 1 0 2 0;
#X connect 6 0 15 0;
#X connect 6 0 8 0;
#X connect 7 0 15 0;
#X connect 7 0 8 0;
#X connect 8 0 16 0;
#X connect 10 0 11 0;
#X connect 12 0 8 1;
#X connect 13 0 15 1;
#X connect 14 0 13 0;
#X connect 14 0 30 0;
#X connect 15 0 9 0;
#X connect 15 0 9 1;
#X connect 17 0 21 0;
#X connect 17 0 29 0;
#X connect 18 0 20 0;
#X connect 19 0 20 0;
#X connect 22 0 20 0;
#X connect 23 0 22 0;
#X connect 24 0 26 0;
#X connect 25 0 20 0;
#X connect 26 0 20 0;
#X connect 28 0 12 0;
#X connect 28 0 31 0;
#X connect 29 0 10 0;
#X connect 29 1 15 1;
#X connect 29 1 30 0;
#X connect 29 2 8 1;
#X connect 29 2 31 0;
#X connect 29 3 1 0;
