#N canvas 1000 29 915 1023 12;
#X obj 150 373 sq;
#X obj 192 373 sq;
#X obj 233 373 sq;
#X obj 274 373 sq;
#X obj 315 373 sq;
#X obj 357 373 sq, f 4;
#X obj 398 373 sq;
#X obj 57 222 bng 15 250 50 0 empty empty empty 17 7 0 10 -262144 -1
-1;
#X obj 150 604 bp~;
#X obj 398 602 bp~;
#X obj 150 700 *~;
#X obj 168 665 vline~;
#X obj 150 745 hip~;
#X obj 398 664 *~;
#X obj 450 664 *~;
#X obj 468 621 vline~;
#X obj 526 621 vline~;
#X obj 398 703 hip~;
#X obj 450 702 hip~;
#X floatatom 296 593 5 0 0 0 - - -, f 5;
#X floatatom 519 519 5 0 0 0 - - -, f 5;
#X floatatom 450 475 5 0 0 0 - - -, f 5;
#X floatatom 246 560 5 0 0 0 - - -, f 5;
#X obj 150 212 mtof;
#X floatatom 150 186 5 0 0 0 - - -, f 5;
#X floatatom 426 302 4 0 0 0 - - -, f 4;
#X obj 150 313 +;
#X obj 192 208 * 2;
#X obj 233 207 * 4;
#X obj 274 207 * 6;
#X obj 315 206 * 8;
#X obj 358 206 * 10;
#X obj 192 313 +;
#X obj 233 312 +;
#X obj 274 312 +;
#X obj 315 312 +;
#X obj 358 312 +;
#X floatatom 197 146 5 0 0 0 - - -, f 5;
#X floatatom 558 677 5 0 0 0 - - -, f 5;
#X floatatom 622 711 5 0 0 0 - - -, f 5;
#X floatatom 342 649 5 0 0 0 - - -, f 5;
#X msg 206 632 1 0 \, 0 100;
#X msg 561 582 1 0 \, 0 1000;
#X msg 470 582 1 0 \, 0 3000;
#X obj 398 900 outlet~;
#X obj 57 189 inlet;
#X obj 150 103 inlet;
#X obj 197 103 inlet;
#X msg 426 274 50;
#X text 21 34 cymbal.pd - tr808-style cymbal/gong generator;
#X obj 246 528 inlet;
#X obj 296 564 inlet;
#X obj 342 621 inlet;
#X obj 450 444 inlet;
#X obj 519 490 inlet;
#X obj 558 647 inlet;
#X obj 622 683 inlet;
#X text 512 151 inlet 1: mtof note (base frequency);
#X text 512 176 inlet 2: detune value across all oscillators;
#X text 512 200 inlet 3: hit sound bandpass frequency;
#X text 512 223 inlet 4: hit sound bandpass q;
#X text 512 246 inlet 5: hit sound hipass frequency;
#X text 512 271 inlet 6: body sound bandpass frequency;
#X text 512 293 inlet 7: body sound bandpass q;
#X text 512 340 inlet 9: body sound hipass freq. 2;
#X text 512 317 inlet 8: body sound hipass freq. 1;
#X text 512 128 inlet 0: bang;
#X connect 0 0 8 0;
#X connect 0 0 9 0;
#X connect 1 0 8 0;
#X connect 1 0 9 0;
#X connect 2 0 8 0;
#X connect 2 0 9 0;
#X connect 3 0 8 0;
#X connect 3 0 9 0;
#X connect 4 0 8 0;
#X connect 4 0 9 0;
#X connect 5 0 8 0;
#X connect 5 0 9 0;
#X connect 6 0 8 0;
#X connect 6 0 9 0;
#X connect 7 0 43 0;
#X connect 7 0 42 0;
#X connect 7 0 41 0;
#X connect 7 0 48 0;
#X connect 8 0 10 0;
#X connect 9 0 13 0;
#X connect 9 0 14 0;
#X connect 10 0 12 0;
#X connect 11 0 10 1;
#X connect 12 0 44 0;
#X connect 13 0 17 0;
#X connect 14 0 18 0;
#X connect 15 0 13 1;
#X connect 16 0 14 1;
#X connect 17 0 44 0;
#X connect 18 0 44 0;
#X connect 19 0 8 2;
#X connect 20 0 9 2;
#X connect 21 0 9 1;
#X connect 22 0 8 1;
#X connect 23 0 26 0;
#X connect 23 0 32 1;
#X connect 23 0 33 1;
#X connect 23 0 34 1;
#X connect 23 0 35 1;
#X connect 23 0 36 1;
#X connect 24 0 23 0;
#X connect 25 0 0 2;
#X connect 25 0 1 2;
#X connect 25 0 2 2;
#X connect 25 0 3 2;
#X connect 25 0 4 2;
#X connect 25 0 5 2;
#X connect 25 0 6 2;
#X connect 26 0 0 0;
#X connect 27 0 32 0;
#X connect 28 0 33 0;
#X connect 29 0 34 0;
#X connect 30 0 35 0;
#X connect 31 0 36 0;
#X connect 32 0 1 0;
#X connect 33 0 2 0;
#X connect 34 0 3 0;
#X connect 35 0 4 0;
#X connect 36 0 5 0;
#X connect 37 0 27 0;
#X connect 37 0 28 0;
#X connect 37 0 29 0;
#X connect 37 0 30 0;
#X connect 37 0 31 0;
#X connect 37 0 26 1;
#X connect 38 0 17 1;
#X connect 39 0 18 1;
#X connect 40 0 12 1;
#X connect 41 0 11 0;
#X connect 42 0 16 0;
#X connect 43 0 15 0;
#X connect 45 0 7 0;
#X connect 46 0 24 0;
#X connect 47 0 37 0;
#X connect 48 0 25 0;
#X connect 50 0 22 0;
#X connect 51 0 19 0;
#X connect 52 0 40 0;
#X connect 53 0 21 0;
#X connect 54 0 20 0;
#X connect 55 0 38 0;
#X connect 56 0 39 0;
