#N canvas 1000 29 915 1023 12;
#X obj 72 317 sq;
#X floatatom 371 100 5 0 0 0 - - -, f 5;
#X floatatom 503 119 5 0 0 0 - - -, f 5;
#X obj 72 265 +;
#X obj 182 323 sq;
#X obj 182 271 +;
#X obj 303 326 sq;
#X obj 303 274 +;
#X obj 419 329 sq;
#X obj 419 277 +;
#X obj 533 331 sq;
#X obj 533 279 +;
#X obj 634 335 sq;
#X obj 634 283 +;
#X obj 225 44 bng 15 250 50 0 empty empty empty 17 7 0 10 -262144 -1
-1;
#X obj 392 805 line;
#X obj 737 264 osc~ 440;
#X obj 737 293 phasor~;
#X obj 325 490 +~;
#X msg 429 765 5000 0 \, 0 1000;
#X obj 182 230 - 5;
#X obj 303 233 - 5;
#X obj 419 236 - 5;
#X obj 533 238 - 5;
#X obj 634 242 - 5;
#X obj 634 212 random 10;
#X obj 533 208 random 10;
#X obj 419 206 random 10;
#X obj 303 203 random 10;
#X obj 182 200 random 10;
#X floatatom 312 904 5 0 0 0 - - -, f 5;
#X obj 287 934 lop~;
#X obj 419 58 mtof;
#X floatatom 419 23 5 0 0 0 - - -, f 5;
#X obj 19 458 line;
#X msg 43 407 5000 0 \, 0 1000;
#X obj 152 520 line;
#X msg 152 491 0 0 \, 0 5000;
#X obj 204 710 *~ 0.2;
#X obj 94 709 *~ 0.2;
#X obj 287 842 *~ 0.2;
#X obj 287 961 *~ 1;
#X obj 303 428 *~ 0.2;
#X obj 225 14 inlet;
#X obj 419 -8 inlet;
#X obj 287 988 outlet~;
#X obj 503 90 inlet;
#X obj 388 486 line;
#X obj 440 676 *~ 0.2;
#X msg 388 457 2500 0 \, 5000 100;
#X obj 94 611 bp~;
#X obj 204 612 bp~;
#X obj 440 578 bp~;
#X floatatom 616 468 5 0 0 0 - - -, f 5;
#X obj 616 440 inlet;
#X text 615 10 rand-perc.pd - clicks and things;
#X text 615 43 I think I was trying to make a cymbal patch but it didn't
go to plan. still made some use out of it, f 34;
#X connect 0 0 42 0;
#X connect 1 0 3 1;
#X connect 1 0 5 1;
#X connect 1 0 7 1;
#X connect 1 0 9 1;
#X connect 1 0 11 1;
#X connect 1 0 13 1;
#X connect 1 0 16 0;
#X connect 2 0 0 2;
#X connect 2 0 4 2;
#X connect 2 0 6 2;
#X connect 2 0 8 2;
#X connect 2 0 10 2;
#X connect 2 0 12 2;
#X connect 3 0 0 0;
#X connect 4 0 42 0;
#X connect 5 0 4 0;
#X connect 6 0 42 0;
#X connect 7 0 6 0;
#X connect 8 0 42 0;
#X connect 9 0 8 0;
#X connect 10 0 42 0;
#X connect 11 0 10 0;
#X connect 12 0 42 0;
#X connect 13 0 12 0;
#X connect 14 0 19 0;
#X connect 14 0 25 0;
#X connect 14 0 26 0;
#X connect 14 0 27 0;
#X connect 14 0 28 0;
#X connect 14 0 29 0;
#X connect 14 0 35 0;
#X connect 14 0 37 0;
#X connect 14 0 49 0;
#X connect 15 0 30 0;
#X connect 16 0 17 0;
#X connect 17 0 42 0;
#X connect 18 0 50 0;
#X connect 18 0 51 0;
#X connect 18 0 52 0;
#X connect 19 0 15 0;
#X connect 20 0 5 0;
#X connect 21 0 7 0;
#X connect 22 0 9 0;
#X connect 23 0 11 0;
#X connect 24 0 13 0;
#X connect 25 0 24 0;
#X connect 26 0 23 0;
#X connect 27 0 22 0;
#X connect 28 0 21 0;
#X connect 29 0 20 0;
#X connect 30 0 31 1;
#X connect 31 0 41 0;
#X connect 32 0 1 0;
#X connect 33 0 32 0;
#X connect 34 0 50 1;
#X connect 35 0 34 0;
#X connect 36 0 51 1;
#X connect 37 0 36 0;
#X connect 38 0 31 0;
#X connect 39 0 31 0;
#X connect 40 0 31 0;
#X connect 41 0 45 0;
#X connect 42 0 18 1;
#X connect 43 0 14 0;
#X connect 44 0 33 0;
#X connect 46 0 2 0;
#X connect 47 0 52 1;
#X connect 48 0 40 0;
#X connect 49 0 47 0;
#X connect 50 0 39 0;
#X connect 51 0 38 0;
#X connect 52 0 48 0;
#X connect 53 0 52 2;
#X connect 53 0 51 2;
#X connect 53 0 50 2;
#X connect 54 0 53 0;
