#N canvas 1000 29 915 1023 12;
#X obj 231 259 delread~ \$0-del-left \$1;
#X obj 54 226 delwrite~ \$0-del-left \$1;
#X floatatom 231 164 5 0 0 0 - - -, f 5;
#X floatatom 319 354 5 0 0 0 - - -, f 5;
#X obj 319 406 delread~ \$0-del-right \$1;
#X obj 453 352 delwrite~ \$0-del-left-fb \$1;
#X obj 502 522 delwrite~ \$0-del-right-fb \$2;
#X obj 539 433 delread~ \$0-del-right-fb \$1;
#X obj 491 253 delread~ \$0-del-left-fb \$1;
#X obj 118 417 delwrite~ \$0-del-right \$1;
#X obj 231 125 inlet;
#X obj 319 308 inlet;
#X obj 63 121 inlet~;
#X obj 424 234 inlet;
#X obj 479 474 *~;
#X obj 497 389 inlet;
#X obj 406 314 *~;
#X obj 407 669 outlet~;
#X obj 479 669 outlet~;
#X text 70 35 stereo-delay.pd - stereo ping-pong delay;
#X text 70 59 inlets::: input sound \, left delay time \, right delay
time \, delay volume and feedback volume (make sure it's < 1);
#X connect 0 0 16 0;
#X connect 2 0 1 0;
#X connect 2 0 0 0;
#X connect 2 0 8 0;
#X connect 2 0 5 0;
#X connect 3 0 4 0;
#X connect 3 0 9 0;
#X connect 4 0 14 0;
#X connect 7 0 14 0;
#X connect 8 0 16 0;
#X connect 10 0 2 0;
#X connect 11 0 3 0;
#X connect 11 0 7 0;
#X connect 11 0 6 0;
#X connect 12 0 1 0;
#X connect 12 0 9 0;
#X connect 13 0 16 1;
#X connect 14 0 6 0;
#X connect 14 0 18 0;
#X connect 15 0 14 1;
#X connect 16 0 17 0;
#X connect 16 0 5 0;
