#N canvas 1000 29 915 1023 12;
#X obj 106 142 inlet;
#X obj 106 189 f;
#X obj 139 189 + 1;
#X obj 106 223 % 16;
#X obj 272 168 hradio 15 0 0 16 empty empty empty 0 -8 0 10 -262144
-1 -1 0;
#X obj 106 482 outlet;
#X obj 106 454 sel 0;
#X obj 159 482 outlet;
#X obj 211 482 outlet;
#X obj 264 482 outlet;
#X obj 316 482 outlet;
#X obj 369 482 outlet;
#X obj 421 482 outlet;
#X obj 474 482 outlet;
#X obj 525 482 outlet;
#X obj 578 482 outlet;
#X obj 630 482 outlet;
#X obj 683 482 outlet;
#X obj 735 481 outlet;
#X obj 788 481 outlet;
#X obj 840 481 outlet;
#X obj 893 481 outlet;
#X obj 159 454 sel 1;
#X obj 211 454 sel 2;
#X obj 264 454 sel 3;
#X obj 316 454 sel 4;
#X obj 369 454 sel 5;
#X obj 421 454 sel 6;
#X obj 474 454 sel 7;
#X obj 525 454 sel 8;
#X obj 578 454 sel 9;
#X obj 630 454 sel 10;
#X obj 683 454 sel 11;
#X obj 735 453 sel 12;
#X obj 788 453 sel 13;
#X obj 840 453 sel 14;
#X obj 893 453 sel 15;
#X text 81 63 trig-16.pd - basic trigger sequencer;
#X connect 0 0 1 0;
#X connect 1 0 2 0;
#X connect 1 0 3 0;
#X connect 2 0 1 1;
#X connect 3 0 6 0;
#X connect 3 0 22 0;
#X connect 3 0 23 0;
#X connect 3 0 24 0;
#X connect 3 0 25 0;
#X connect 3 0 26 0;
#X connect 3 0 27 0;
#X connect 3 0 28 0;
#X connect 3 0 29 0;
#X connect 3 0 30 0;
#X connect 3 0 31 0;
#X connect 3 0 32 0;
#X connect 3 0 33 0;
#X connect 3 0 34 0;
#X connect 3 0 35 0;
#X connect 3 0 36 0;
#X connect 3 0 4 0;
#X connect 6 0 5 0;
#X connect 22 0 7 0;
#X connect 23 0 8 0;
#X connect 24 0 9 0;
#X connect 25 0 10 0;
#X connect 26 0 11 0;
#X connect 27 0 12 0;
#X connect 28 0 13 0;
#X connect 29 0 14 0;
#X connect 30 0 15 0;
#X connect 31 0 16 0;
#X connect 32 0 17 0;
#X connect 33 0 18 0;
#X connect 34 0 19 0;
#X connect 35 0 20 0;
#X connect 36 0 21 0;
#X coords 0 -1 1 1 240 39 1 272 147;
